<svg aria-hidden="true" style="position: absolute; width: 0; height: 0; overflow: hidden;"
    version="1.1" xmlns="http://www.w3.org/2000/svg" xmlns:xlink="http://www.w3.org/1999/xlink">
    <defs>
        <symbol id="icon-Aerrow" viewBox="0 0 34 32">
            <path fill="#335b6b" style="fill: var(--color1, #335b6b)"
                d="M32.304 16c0 8.837-7.163 16-16 16s-16-7.163-16-16c0-8.837 7.163-16 16-16s16 7.163 16 16z"></path>
            <path fill="none" stroke="#fff" style="stroke: var(--color2, #fff)"
                stroke-linejoin="round" stroke-linecap="round" stroke-miterlimit="4"
                stroke-width="1.6842"
                d="M16.265 10.322l5.717 5.161-5.717 5.161M21.188 15.484h-11.593"></path>
        </symbol>
        <symbol id="icon-404" viewBox="0 0 73 32">
            <path fill="#8fa8a8" style="fill: var(--color1, #8fa8a8)"
                d="M22.743 19.602v5.156h-22.329l-0.362-4.048 12.699-20.284h5.263l-5.71 9.46-5.774 9.716h16.214zM19.419 0.426v31.023h-6.648v-31.023h6.648z"></path>
            <path fill="#8fa8a8" style="fill: var(--color1, #8fa8a8)"
                d="M47.225 13.168v5.519c0 2.273-0.256 4.24-0.767 5.902-0.497 1.662-1.222 3.033-2.173 4.112-0.937 1.080-2.060 1.882-3.366 2.408-1.293 0.511-2.727 0.767-4.304 0.767-1.264 0-2.443-0.163-3.537-0.49s-2.081-0.831-2.962-1.513c-0.866-0.696-1.612-1.562-2.237-2.599s-1.108-2.273-1.449-3.707c-0.327-1.435-0.49-3.061-0.49-4.879v-5.518c0-2.301 0.249-4.276 0.746-5.923 0.511-1.648 1.243-3.011 2.195-4.091s2.074-1.875 3.366-2.386c1.307-0.511 2.749-0.767 4.325-0.767 1.264 0 2.436 0.163 3.516 0.49 1.094 0.327 2.081 0.831 2.962 1.513s1.626 1.541 2.237 2.578c0.625 1.037 1.101 2.273 1.428 3.707 0.341 1.42 0.511 3.047 0.511 4.879zM40.577 19.517v-7.223c0-1.065-0.064-1.989-0.192-2.77-0.114-0.795-0.284-1.47-0.511-2.024-0.213-0.554-0.483-1.001-0.81-1.342s-0.703-0.59-1.129-0.746c-0.412-0.17-0.866-0.256-1.364-0.256-0.625 0-1.186 0.128-1.683 0.384s-0.916 0.661-1.257 1.215c-0.341 0.54-0.604 1.271-0.788 2.195-0.17 0.909-0.256 2.024-0.256 3.345v7.223c0 1.065 0.057 1.996 0.17 2.791 0.128 0.796 0.298 1.477 0.511 2.046 0.227 0.554 0.504 1.008 0.831 1.364 0.327 0.341 0.703 0.589 1.129 0.746s0.888 0.234 1.385 0.234c0.625 0 1.179-0.121 1.662-0.362 0.483-0.256 0.895-0.66 1.236-1.215 0.355-0.568 0.618-1.314 0.788-2.237 0.185-0.923 0.277-2.045 0.277-3.366z"></path>
            <path fill="#8fa8a8" style="fill: var(--color1, #8fa8a8)"
                d="M73.112 19.602v5.156h-22.329l-0.362-4.048 12.699-20.284h5.263l-5.71 9.46-5.774 9.716h16.214zM69.788 0.426v31.023h-6.648v-31.023h6.648z"></path>
        </symbol>
    </defs>
</svg>