<svg aria-hidden="true" style="position: absolute; width: 0; height: 0; overflow: hidden;"
    version="1.1" xmlns="http://www.w3.org/2000/svg" xmlns:xlink="http://www.w3.org/1999/xlink">
    <defs>
   <symbol id="icon-Vector" viewBox="0 0 43 32">
<path fill="none" stroke="#274c5b" style="stroke: var(--color1, #274c5b)" stroke-linejoin="round" stroke-linecap="round" stroke-miterlimit="4" stroke-width="8" d="M4.219 8l16 16 16-16"></path>
</symbol>
<symbol id="icon-user" viewBox="0 0 32 32">
<path d="M18 22.082v-1.649c2.203-1.241 4-4.337 4-7.432 0-4.971 0-9-6-9s-6 4.029-6 9c0 3.096 1.797 6.191 4 7.432v1.649c-6.784 0.555-12 3.888-12 7.918h28c0-4.030-5.216-7.364-12-7.918z"></path>
</symbol>
        <symbol id="icon-Aerrow" viewBox="0 0 34 32">
            <path fill="#335b6b" style="fill: var(--color1, #335b6b)"
                d="M32.304 16c0 8.837-7.163 16-16 16s-16-7.163-16-16c0-8.837 7.163-16 16-16s16 7.163 16 16z"></path>
            <path fill="none" stroke="#fff" style="stroke: var(--color2, #fff)"
                stroke-linejoin="round" stroke-linecap="round" stroke-miterlimit="4"
                stroke-width="1.6842"
                d="M16.265 10.322l5.717 5.161-5.717 5.161M21.188 15.484h-11.593"></path>
        </symbol>
         <symbol id="icon-search" viewBox="0 0 33 32">
<path fill="#7eb693" style="fill: var(--color1, #7eb693)" d="M32.452 16c0 8.837-7.163 16-16 16s-16-7.163-16-16c0-8.837 7.163-16 16-16s16 7.163 16 16z"></path>
<path fill="#fafafa" style="fill: var(--color2, #fafafa)" d="M23.125 20.51l-2.72-2.72c0.655-0.872 1.008-1.933 1.007-3.024 0-2.785-2.266-5.052-5.052-5.052s-5.052 2.266-5.052 5.052c0 2.785 2.266 5.052 5.052 5.052 1.090 0.001 2.152-0.352 3.024-1.007l2.72 2.72c0.138 0.123 0.317 0.189 0.502 0.184s0.36-0.081 0.491-0.211c0.131-0.131 0.206-0.306 0.211-0.491s-0.061-0.364-0.184-0.502zM12.752 14.766c0-0.714 0.212-1.411 0.608-2.005s0.96-1.056 1.619-1.329 1.385-0.345 2.085-0.205c0.7 0.139 1.343 0.483 1.847 0.988s0.848 1.148 0.988 1.848c0.139 0.7 0.068 1.425-0.205 2.085s-0.736 1.223-1.329 1.619c-0.593 0.396-1.291 0.608-2.005 0.608-0.957-0.001-1.874-0.382-2.55-1.058s-1.057-1.594-1.058-2.55z"></path>
</symbol>
<symbol id="icon-cart" viewBox="0 0 33 32">
<path fill="#274c5b" style="fill: var(--color1, #274c5b)" d="M32.452 16c0 8.837-7.163 16-16 16s-16-7.163-16-16c0-8.837 7.163-16 16-16s16 7.163 16 16z"></path>
<path fill="#fff" style="fill: var(--color2, #fff); stroke: var(--color2, #fff)" stroke="#fff" stroke-linejoin="round" stroke-linecap="round" stroke-miterlimit="4" stroke-width="0.8571" d="M14.611 22.286c0.386 0 0.698-0.313 0.698-0.698s-0.313-0.698-0.698-0.698c-0.386 0-0.698 0.313-0.698 0.698s0.313 0.698 0.698 0.698z"></path>
<path fill="#fff" style="fill: var(--color2, #fff); stroke: var(--color2, #fff)" stroke="#fff" stroke-linejoin="round" stroke-linecap="round" stroke-miterlimit="4" stroke-width="0.8571" d="M19.5 22.286c0.386 0 0.698-0.313 0.698-0.698s-0.313-0.698-0.698-0.698c-0.386 0-0.698 0.313-0.698 0.698s0.313 0.698 0.698 0.698z"></path>
<path fill="none" stroke="#fff" style="stroke: var(--color2, #fff)" stroke-linejoin="round" stroke-linecap="round" stroke-miterlimit="4" stroke-width="1.1429" d="M9.023 9.714h2.161l1.621 9.185h8.644"></path>
<path fill="none" stroke="#fff" style="stroke: var(--color2, #fff)" stroke-linejoin="round" stroke-linecap="round" stroke-miterlimit="4" stroke-width="1.1429" d="M12.516 16.676l8.713 0.061c0.062 0 0.123-0.022 0.171-0.061s0.081-0.095 0.094-0.156l0.972-4.862c0.008-0.039 0.007-0.080-0.003-0.118s-0.028-0.075-0.053-0.106-0.057-0.056-0.093-0.073c-0.036-0.017-0.076-0.026-0.116-0.026h-10.567"></path>
</symbol>
<symbol id="icon-plant" viewBox="0 0 22 32">
<path fill="none" stroke="#7eb693" style="stroke: var(--color1, #7eb693)" stroke-linejoin="miter" stroke-linecap="butt" stroke-miterlimit="10" stroke-width="1.1429" d="M1.057 24.039h19.932"></path>
<path fill="none" stroke="#7eb693" style="stroke: var(--color1, #7eb693)" stroke-linejoin="miter" stroke-linecap="butt" stroke-miterlimit="10" stroke-width="1.1429" d="M3.309 27.714h15.429"></path>
<path fill="none" stroke="#7eb693" style="stroke: var(--color1, #7eb693)" stroke-linejoin="miter" stroke-linecap="butt" stroke-miterlimit="10" stroke-width="1.1429" d="M10.738 0.857v8"></path>
<path fill="none" stroke="#7eb693" style="stroke: var(--color1, #7eb693)" stroke-linejoin="miter" stroke-linecap="butt" stroke-miterlimit="10" stroke-width="1.1429" d="M10.78 8.448v15.104"></path>
<path fill="none" stroke="#7eb693" style="stroke: var(--color1, #7eb693)" stroke-linejoin="miter" stroke-linecap="butt" stroke-miterlimit="10" stroke-width="1.1429" d="M17.1 2.602l-6.32 6.334"></path>
<path fill="none" stroke="#7eb693" style="stroke: var(--color1, #7eb693)" stroke-linejoin="miter" stroke-linecap="butt" stroke-miterlimit="10" stroke-width="1.1429" d="M19.531 5.038l-8.751 8.77"></path>
<path fill="none" stroke="#7eb693" style="stroke: var(--color1, #7eb693)" stroke-linejoin="miter" stroke-linecap="butt" stroke-miterlimit="10" stroke-width="1.1429" d="M20.989 8.935l-10.209 9.744"></path>
<path fill="none" stroke="#7eb693" style="stroke: var(--color1, #7eb693)" stroke-linejoin="miter" stroke-linecap="butt" stroke-miterlimit="10" stroke-width="1.1429" d="M21.475 13.32l-10.695 10.719"></path>
<path fill="none" stroke="#7eb693" style="stroke: var(--color1, #7eb693)" stroke-linejoin="miter" stroke-linecap="butt" stroke-miterlimit="10" stroke-width="1.1429" d="M21.475 18.192l-5.834 5.847"></path>
<path fill="none" stroke="#7eb693" style="stroke: var(--color1, #7eb693)" stroke-linejoin="miter" stroke-linecap="butt" stroke-miterlimit="10" stroke-width="1.1429" d="M0.571 18.192l5.834 5.847"></path>
<path fill="none" stroke="#7eb693" style="stroke: var(--color1, #7eb693)" stroke-linejoin="miter" stroke-linecap="butt" stroke-miterlimit="10" stroke-width="1.1429" d="M4.946 2.602l5.834 6.334"></path>
<path fill="none" stroke="#7eb693" style="stroke: var(--color1, #7eb693)" stroke-linejoin="miter" stroke-linecap="butt" stroke-miterlimit="10" stroke-width="1.1429" d="M2.516 5.038l8.264 8.77"></path>
<path fill="none" stroke="#7eb693" style="stroke: var(--color1, #7eb693)" stroke-linejoin="miter" stroke-linecap="butt" stroke-miterlimit="10" stroke-width="1.1429" d="M1.057 8.448l9.723 10.232"></path>
<path fill="none" stroke="#7eb693" style="stroke: var(--color1, #7eb693)" stroke-linejoin="miter" stroke-linecap="butt" stroke-miterlimit="10" stroke-width="1.1429" d="M0.571 12.833l10.209 10.719"></path>
<path fill="none" stroke="#7eb693" style="stroke: var(--color1, #7eb693)" stroke-linejoin="miter" stroke-linecap="butt" stroke-miterlimit="10" stroke-width="1.1429" d="M11.023 31.347c-5.772 0-10.452-4.83-10.452-10.789v-9.117c0-5.958 4.68-10.789 10.452-10.789 5.773 0 10.452 4.831 10.452 10.789v9.117c0.001 5.959-4.679 10.789-10.452 10.789z"></path>
</symbol>
<symbol id="icon-stack" viewBox="0 0 32 32">
<path d="M32 10l-16-8-16 8 16 8 16-8zM16 4.655l10.689 5.345-10.689 5.345-10.689-5.345 10.689-5.345zM28.795 14.398l3.205 1.602-16 8-16-8 3.205-1.602 12.795 6.398zM28.795 20.398l3.205 1.602-16 8-16-8 3.205-1.602 12.795 6.398z"></path>
</symbol>
<symbol id="icon-cross" viewBox="0 0 32 32">
<path d="M31.708 25.708c-0-0-0-0-0-0l-9.708-9.708 9.708-9.708c0-0 0-0 0-0 0.105-0.105 0.18-0.227 0.229-0.357 0.133-0.356 0.057-0.771-0.229-1.057l-4.586-4.586c-0.286-0.286-0.702-0.361-1.057-0.229-0.13 0.048-0.252 0.124-0.357 0.228 0 0-0 0-0 0l-9.708 9.708-9.708-9.708c-0-0-0-0-0-0-0.105-0.104-0.227-0.18-0.357-0.228-0.356-0.133-0.771-0.057-1.057 0.229l-4.586 4.586c-0.286 0.286-0.361 0.702-0.229 1.057 0.049 0.13 0.124 0.252 0.229 0.357 0 0 0 0 0 0l9.708 9.708-9.708 9.708c-0 0-0 0-0 0-0.104 0.105-0.18 0.227-0.229 0.357-0.133 0.355-0.057 0.771 0.229 1.057l4.586 4.586c0.286 0.286 0.702 0.361 1.057 0.229 0.13-0.049 0.252-0.124 0.357-0.229 0-0 0-0 0-0l9.708-9.708 9.708 9.708c0 0 0 0 0 0 0.105 0.105 0.227 0.18 0.357 0.229 0.356 0.133 0.771 0.057 1.057-0.229l4.586-4.586c0.286-0.286 0.362-0.702 0.229-1.057-0.049-0.13-0.124-0.252-0.229-0.357z"></path>
</symbol>

    </defs>
</svg>