<svg aria-hidden="true" style="position: absolute; width: 0; height: 0; overflow: hidden;"
    version="1.1" xmlns="http://www.w3.org/2000/svg" xmlns:xlink="http://www.w3.org/1999/xlink">
    <defs>
        <symbol id="icon-Vector" viewBox="0 0 43 32">
            <path fill="none" stroke="#274c5b" style="stroke: var(--color1, #274c5b)"
                stroke-linejoin="round" stroke-linecap="round" stroke-miterlimit="4"
                stroke-width="8" d="M4.219 8l16 16 16-16"></path>
        </symbol>
        <symbol id="icon-user" viewBox="0 0 32 32">
            <path
                d="M18 22.082v-1.649c2.203-1.241 4-4.337 4-7.432 0-4.971 0-9-6-9s-6 4.029-6 9c0 3.096 1.797 6.191 4 7.432v1.649c-6.784 0.555-12 3.888-12 7.918h28c0-4.030-5.216-7.364-12-7.918z"></path>
        </symbol>
        <symbol id="icon-Aerrow" viewBox="0 0 34 32">
            <path fill="#335b6b" style="fill: var(--color1, #335b6b)"
                d="M32.304 16c0 8.837-7.163 16-16 16s-16-7.163-16-16c0-8.837 7.163-16 16-16s16 7.163 16 16z"></path>
            <path fill="none" stroke="#fff" style="stroke: var(--color2, #fff)"
                stroke-linejoin="round" stroke-linecap="round" stroke-miterlimit="4"
                stroke-width="1.6842"
                d="M16.265 10.322l5.717 5.161-5.717 5.161M21.188 15.484h-11.593"></path>
        </symbol>
        <symbol id="icon-search" viewBox="0 0 33 32">
            <path fill="#7eb693" style="fill: var(--color1, #7eb693)"
                d="M32.452 16c0 8.837-7.163 16-16 16s-16-7.163-16-16c0-8.837 7.163-16 16-16s16 7.163 16 16z"></path>
            <path fill="#fafafa" style="fill: var(--color2, #fafafa)"
                d="M23.125 20.51l-2.72-2.72c0.655-0.872 1.008-1.933 1.007-3.024 0-2.785-2.266-5.052-5.052-5.052s-5.052 2.266-5.052 5.052c0 2.785 2.266 5.052 5.052 5.052 1.090 0.001 2.152-0.352 3.024-1.007l2.72 2.72c0.138 0.123 0.317 0.189 0.502 0.184s0.36-0.081 0.491-0.211c0.131-0.131 0.206-0.306 0.211-0.491s-0.061-0.364-0.184-0.502zM12.752 14.766c0-0.714 0.212-1.411 0.608-2.005s0.96-1.056 1.619-1.329 1.385-0.345 2.085-0.205c0.7 0.139 1.343 0.483 1.847 0.988s0.848 1.148 0.988 1.848c0.139 0.7 0.068 1.425-0.205 2.085s-0.736 1.223-1.329 1.619c-0.593 0.396-1.291 0.608-2.005 0.608-0.957-0.001-1.874-0.382-2.55-1.058s-1.057-1.594-1.058-2.55z"></path>
        </symbol>
        <symbol id="icon-cart" viewBox="0 0 33 32">
            <path fill="#274c5b" style="fill: var(--color1, #274c5b)"
                d="M32.452 16c0 8.837-7.163 16-16 16s-16-7.163-16-16c0-8.837 7.163-16 16-16s16 7.163 16 16z"></path>
            <path fill="#fff" style="fill: var(--color2, #fff); stroke: var(--color2, #fff)"
                stroke="#fff" stroke-linejoin="round" stroke-linecap="round" stroke-miterlimit="4"
                stroke-width="0.8571"
                d="M14.611 22.286c0.386 0 0.698-0.313 0.698-0.698s-0.313-0.698-0.698-0.698c-0.386 0-0.698 0.313-0.698 0.698s0.313 0.698 0.698 0.698z"></path>
            <path fill="#fff" style="fill: var(--color2, #fff); stroke: var(--color2, #fff)"
                stroke="#fff" stroke-linejoin="round" stroke-linecap="round" stroke-miterlimit="4"
                stroke-width="0.8571"
                d="M19.5 22.286c0.386 0 0.698-0.313 0.698-0.698s-0.313-0.698-0.698-0.698c-0.386 0-0.698 0.313-0.698 0.698s0.313 0.698 0.698 0.698z"></path>
            <path fill="none" stroke="#fff" style="stroke: var(--color2, #fff)"
                stroke-linejoin="round" stroke-linecap="round" stroke-miterlimit="4"
                stroke-width="1.1429" d="M9.023 9.714h2.161l1.621 9.185h8.644"></path>
            <path fill="none" stroke="#fff" style="stroke: var(--color2, #fff)"
                stroke-linejoin="round" stroke-linecap="round" stroke-miterlimit="4"
                stroke-width="1.1429"
                d="M12.516 16.676l8.713 0.061c0.062 0 0.123-0.022 0.171-0.061s0.081-0.095 0.094-0.156l0.972-4.862c0.008-0.039 0.007-0.080-0.003-0.118s-0.028-0.075-0.053-0.106-0.057-0.056-0.093-0.073c-0.036-0.017-0.076-0.026-0.116-0.026h-10.567"></path>
        </symbol>
        <symbol id="icon-404" viewBox="0 0 73 32">
            <path fill="#8fa8a8" style="fill: var(--color1, #8fa8a8)"
                d="M22.743 19.602v5.156h-22.329l-0.362-4.048 12.699-20.284h5.263l-5.71 9.46-5.774 9.716h16.214zM19.419 0.426v31.023h-6.648v-31.023h6.648z"></path>
            <path fill="#8fa8a8" style="fill: var(--color1, #8fa8a8)"
                d="M47.225 13.168v5.519c0 2.273-0.256 4.24-0.767 5.902-0.497 1.662-1.222 3.033-2.173 4.112-0.937 1.080-2.060 1.882-3.366 2.408-1.293 0.511-2.727 0.767-4.304 0.767-1.264 0-2.443-0.163-3.537-0.49s-2.081-0.831-2.962-1.513c-0.866-0.696-1.612-1.562-2.237-2.599s-1.108-2.273-1.449-3.707c-0.327-1.435-0.49-3.061-0.49-4.879v-5.518c0-2.301 0.249-4.276 0.746-5.923 0.511-1.648 1.243-3.011 2.195-4.091s2.074-1.875 3.366-2.386c1.307-0.511 2.749-0.767 4.325-0.767 1.264 0 2.436 0.163 3.516 0.49 1.094 0.327 2.081 0.831 2.962 1.513s1.626 1.541 2.237 2.578c0.625 1.037 1.101 2.273 1.428 3.707 0.341 1.42 0.511 3.047 0.511 4.879zM40.577 19.517v-7.223c0-1.065-0.064-1.989-0.192-2.77-0.114-0.795-0.284-1.47-0.511-2.024-0.213-0.554-0.483-1.001-0.81-1.342s-0.703-0.59-1.129-0.746c-0.412-0.17-0.866-0.256-1.364-0.256-0.625 0-1.186 0.128-1.683 0.384s-0.916 0.661-1.257 1.215c-0.341 0.54-0.604 1.271-0.788 2.195-0.17 0.909-0.256 2.024-0.256 3.345v7.223c0 1.065 0.057 1.996 0.17 2.791 0.128 0.796 0.298 1.477 0.511 2.046 0.227 0.554 0.504 1.008 0.831 1.364 0.327 0.341 0.703 0.589 1.129 0.746s0.888 0.234 1.385 0.234c0.625 0 1.179-0.121 1.662-0.362 0.483-0.256 0.895-0.66 1.236-1.215 0.355-0.568 0.618-1.314 0.788-2.237 0.185-0.923 0.277-2.045 0.277-3.366z"></path>
            <path fill="#8fa8a8" style="fill: var(--color1, #8fa8a8)"
                d="M73.112 19.602v5.156h-22.329l-0.362-4.048 12.699-20.284h5.263l-5.71 9.46-5.774 9.716h16.214zM69.788 0.426v31.023h-6.648v-31.023h6.648z"></path>
        </symbol>
        <symbol id="icon-people" viewBox="0 0 29 32">
            <path fill="#efd372" style="fill: var(--color1, #efd372)"
                d="M19.706 2.327c-1.347-1.501-3.229-2.327-5.306-2.327-2.088 0-3.976 0.821-5.317 2.313-1.356 1.508-2.016 3.557-1.861 5.77 0.307 4.366 3.527 7.917 7.178 7.917s6.865-3.551 7.177-7.916c0.157-2.193-0.508-4.238-1.871-5.757zM26.584 32h-24.369c-0.319 0.004-0.635-0.065-0.925-0.202s-0.546-0.34-0.751-0.593c-0.45-0.555-0.631-1.313-0.497-2.079 0.584-3.344 2.408-6.154 5.274-8.126 2.546-1.751 5.772-2.714 9.083-2.714s6.537 0.964 9.083 2.714c2.866 1.972 4.689 4.781 5.274 8.125 0.134 0.766-0.047 1.524-0.497 2.079-0.204 0.253-0.461 0.455-0.751 0.593s-0.606 0.207-0.925 0.203z"></path>
        </symbol>
        <symbol id="icon-facebook" viewBox="0 0 32 32">
            <path
                d="M29 0h-26c-1.65 0-3 1.35-3 3v26c0 1.65 1.35 3 3 3h13v-14h-4v-4h4v-2c0-3.306 2.694-6 6-6h4v4h-4c-1.1 0-2 0.9-2 2v2h6l-1 4h-5v14h9c1.65 0 3-1.35 3-3v-26c0-1.65-1.35-3-3-3z"></path>
        </symbol>
        <symbol id="icon-instagram" viewBox="0 0 32 32">
            <path
                d="M16 2.881c4.275 0 4.781 0.019 6.462 0.094 1.563 0.069 2.406 0.331 2.969 0.55 0.744 0.288 1.281 0.638 1.837 1.194 0.563 0.563 0.906 1.094 1.2 1.838 0.219 0.563 0.481 1.412 0.55 2.969 0.075 1.688 0.094 2.194 0.094 6.463s-0.019 4.781-0.094 6.463c-0.069 1.563-0.331 2.406-0.55 2.969-0.288 0.744-0.637 1.281-1.194 1.837-0.563 0.563-1.094 0.906-1.837 1.2-0.563 0.219-1.413 0.481-2.969 0.55-1.688 0.075-2.194 0.094-6.463 0.094s-4.781-0.019-6.463-0.094c-1.563-0.069-2.406-0.331-2.969-0.55-0.744-0.288-1.281-0.637-1.838-1.194-0.563-0.563-0.906-1.094-1.2-1.837-0.219-0.563-0.481-1.413-0.55-2.969-0.075-1.688-0.094-2.194-0.094-6.463s0.019-4.781 0.094-6.463c0.069-1.563 0.331-2.406 0.55-2.969 0.288-0.744 0.638-1.281 1.194-1.838 0.563-0.563 1.094-0.906 1.838-1.2 0.563-0.219 1.412-0.481 2.969-0.55 1.681-0.075 2.188-0.094 6.463-0.094zM16 0c-4.344 0-4.887 0.019-6.594 0.094-1.7 0.075-2.869 0.35-3.881 0.744-1.056 0.412-1.95 0.956-2.837 1.85-0.894 0.888-1.438 1.781-1.85 2.831-0.394 1.019-0.669 2.181-0.744 3.881-0.075 1.713-0.094 2.256-0.094 6.6s0.019 4.887 0.094 6.594c0.075 1.7 0.35 2.869 0.744 3.881 0.413 1.056 0.956 1.95 1.85 2.837 0.887 0.887 1.781 1.438 2.831 1.844 1.019 0.394 2.181 0.669 3.881 0.744 1.706 0.075 2.25 0.094 6.594 0.094s4.888-0.019 6.594-0.094c1.7-0.075 2.869-0.35 3.881-0.744 1.050-0.406 1.944-0.956 2.831-1.844s1.438-1.781 1.844-2.831c0.394-1.019 0.669-2.181 0.744-3.881 0.075-1.706 0.094-2.25 0.094-6.594s-0.019-4.887-0.094-6.594c-0.075-1.7-0.35-2.869-0.744-3.881-0.394-1.063-0.938-1.956-1.831-2.844-0.887-0.887-1.781-1.438-2.831-1.844-1.019-0.394-2.181-0.669-3.881-0.744-1.712-0.081-2.256-0.1-6.6-0.1v0z"></path>
            <path
                d="M16 7.781c-4.537 0-8.219 3.681-8.219 8.219s3.681 8.219 8.219 8.219 8.219-3.681 8.219-8.219c0-4.537-3.681-8.219-8.219-8.219zM16 21.331c-2.944 0-5.331-2.387-5.331-5.331s2.387-5.331 5.331-5.331c2.944 0 5.331 2.387 5.331 5.331s-2.387 5.331-5.331 5.331z"></path>
            <path
                d="M26.462 7.456c0 1.060-0.859 1.919-1.919 1.919s-1.919-0.859-1.919-1.919c0-1.060 0.859-1.919 1.919-1.919s1.919 0.859 1.919 1.919z"></path>
        </symbol>
        <symbol id="icon-twitter" viewBox="0 0 32 32">
            <path
                d="M32 7.075c-1.175 0.525-2.444 0.875-3.769 1.031 1.356-0.813 2.394-2.1 2.887-3.631-1.269 0.75-2.675 1.3-4.169 1.594-1.2-1.275-2.906-2.069-4.794-2.069-3.625 0-6.563 2.938-6.563 6.563 0 0.512 0.056 1.012 0.169 1.494-5.456-0.275-10.294-2.888-13.531-6.862-0.563 0.969-0.887 2.1-0.887 3.3 0 2.275 1.156 4.287 2.919 5.463-1.075-0.031-2.087-0.331-2.975-0.819 0 0.025 0 0.056 0 0.081 0 3.181 2.263 5.838 5.269 6.437-0.55 0.15-1.131 0.231-1.731 0.231-0.425 0-0.831-0.044-1.237-0.119 0.838 2.606 3.263 4.506 6.131 4.563-2.25 1.762-5.075 2.813-8.156 2.813-0.531 0-1.050-0.031-1.569-0.094 2.913 1.869 6.362 2.95 10.069 2.95 12.075 0 18.681-10.006 18.681-18.681 0-0.287-0.006-0.569-0.019-0.85 1.281-0.919 2.394-2.075 3.275-3.394z"></path>
        </symbol>
        <symbol id="icon-pinterest" viewBox="0 0 32 32">
            <path
                d="M16 2.138c-7.656 0-13.863 6.206-13.863 13.863 0 5.875 3.656 10.887 8.813 12.906-0.119-1.094-0.231-2.781 0.050-3.975 0.25-1.081 1.625-6.887 1.625-6.887s-0.412-0.831-0.412-2.056c0-1.925 1.119-3.369 2.506-3.369 1.181 0 1.756 0.887 1.756 1.95 0 1.188-0.756 2.969-1.15 4.613-0.331 1.381 0.688 2.506 2.050 2.506 2.462 0 4.356-2.6 4.356-6.35 0-3.319-2.387-5.638-5.787-5.638-3.944 0-6.256 2.956-6.256 6.019 0 1.194 0.456 2.469 1.031 3.163 0.113 0.137 0.131 0.256 0.094 0.4-0.106 0.438-0.338 1.381-0.387 1.575-0.063 0.256-0.2 0.306-0.463 0.188-1.731-0.806-2.813-3.337-2.813-5.369 0-4.375 3.175-8.387 9.156-8.387 4.806 0 8.544 3.425 8.544 8.006 0 4.775-3.012 8.625-7.194 8.625-1.406 0-2.725-0.731-3.175-1.594 0 0-0.694 2.644-0.863 3.294-0.313 1.206-1.156 2.712-1.725 3.631 1.3 0.4 2.675 0.619 4.106 0.619 7.656 0 13.863-6.206 13.863-13.863 0-7.662-6.206-13.869-13.863-13.869z"></path>
        </symbol>
        <symbol id="icon-logo" viewBox="0 0 22 32">
            <path fill="none" stroke="#7eb693" style="stroke: var(--color1, #7eb693)"
                stroke-linejoin="miter" stroke-linecap="butt" stroke-miterlimit="10"
                stroke-width="1.1429" d="M1.057 24.039h19.932"></path>
            <path fill="none" stroke="#7eb693" style="stroke: var(--color1, #7eb693)"
                stroke-linejoin="miter" stroke-linecap="butt" stroke-miterlimit="10"
                stroke-width="1.1429" d="M3.309 27.714h15.429"></path>
            <path fill="none" stroke="#7eb693" style="stroke: var(--color1, #7eb693)"
                stroke-linejoin="miter" stroke-linecap="butt" stroke-miterlimit="10"
                stroke-width="1.1429" d="M10.738 0.857v8"></path>
            <path fill="none" stroke="#7eb693" style="stroke: var(--color1, #7eb693)"
                stroke-linejoin="miter" stroke-linecap="butt" stroke-miterlimit="10"
                stroke-width="1.1429" d="M10.78 8.448v15.104"></path>
            <path fill="none" stroke="#7eb693" style="stroke: var(--color1, #7eb693)"
                stroke-linejoin="miter" stroke-linecap="butt" stroke-miterlimit="10"
                stroke-width="1.1429" d="M17.1 2.602l-6.32 6.334"></path>
            <path fill="none" stroke="#7eb693" style="stroke: var(--color1, #7eb693)"
                stroke-linejoin="miter" stroke-linecap="butt" stroke-miterlimit="10"
                stroke-width="1.1429" d="M19.531 5.038l-8.751 8.77"></path>
            <path fill="none" stroke="#7eb693" style="stroke: var(--color1, #7eb693)"
                stroke-linejoin="miter" stroke-linecap="butt" stroke-miterlimit="10"
                stroke-width="1.1429" d="M20.989 8.935l-10.209 9.744"></path>
            <path fill="none" stroke="#7eb693" style="stroke: var(--color1, #7eb693)"
                stroke-linejoin="miter" stroke-linecap="butt" stroke-miterlimit="10"
                stroke-width="1.1429" d="M21.475 13.32l-10.695 10.719"></path>
            <path fill="none" stroke="#7eb693" style="stroke: var(--color1, #7eb693)"
                stroke-linejoin="miter" stroke-linecap="butt" stroke-miterlimit="10"
                stroke-width="1.1429" d="M21.475 18.192l-5.834 5.847"></path>
            <path fill="none" stroke="#7eb693" style="stroke: var(--color1, #7eb693)"
                stroke-linejoin="miter" stroke-linecap="butt" stroke-miterlimit="10"
                stroke-width="1.1429" d="M0.571 18.192l5.834 5.847"></path>
            <path fill="none" stroke="#7eb693" style="stroke: var(--color1, #7eb693)"
                stroke-linejoin="miter" stroke-linecap="butt" stroke-miterlimit="10"
                stroke-width="1.1429" d="M4.946 2.602l5.834 6.334"></path>
            <path fill="none" stroke="#7eb693" style="stroke: var(--color1, #7eb693)"
                stroke-linejoin="miter" stroke-linecap="butt" stroke-miterlimit="10"
                stroke-width="1.1429" d="M2.516 5.038l8.264 8.77"></path>
            <path fill="none" stroke="#7eb693" style="stroke: var(--color1, #7eb693)"
                stroke-linejoin="miter" stroke-linecap="butt" stroke-miterlimit="10"
                stroke-width="1.1429" d="M1.057 8.448l9.723 10.232"></path>
            <path fill="none" stroke="#7eb693" style="stroke: var(--color1, #7eb693)"
                stroke-linejoin="miter" stroke-linecap="butt" stroke-miterlimit="10"
                stroke-width="1.1429" d="M0.571 12.833l10.209 10.719"></path>
            <path fill="none" stroke="#7eb693" style="stroke: var(--color1, #7eb693)"
                stroke-linejoin="miter" stroke-linecap="butt" stroke-miterlimit="10"
                stroke-width="1.1429"
                d="M11.023 31.347c-5.772 0-10.452-4.83-10.452-10.789v-9.117c0-5.958 4.68-10.789 10.452-10.789 5.773 0 10.452 4.831 10.452 10.789v9.117c0.001 5.959-4.679 10.789-10.452 10.789z"></path>
        </symbol>
        <symbol id="icon-fast-food-burger-svgrepo-com-1" viewBox="0 0 32 32">
            <path d="M1.333 14.667h29.333v2.667h-29.333v-2.667z"></path>
            <path d="M1.333 6.667h29.333v2.667h-29.333v-2.667z"></path>
            <path d="M1.333 22.667h29.333v2.667h-29.333v-2.667z"></path>
        </symbol>
        <symbol id="icon-cross" viewBox="0 0 32 32">
            <path
                d="M31.708 25.708c-0-0-0-0-0-0l-9.708-9.708 9.708-9.708c0-0 0-0 0-0 0.105-0.105 0.18-0.227 0.229-0.357 0.133-0.356 0.057-0.771-0.229-1.057l-4.586-4.586c-0.286-0.286-0.702-0.361-1.057-0.229-0.13 0.048-0.252 0.124-0.357 0.228 0 0-0 0-0 0l-9.708 9.708-9.708-9.708c-0-0-0-0-0-0-0.105-0.104-0.227-0.18-0.357-0.228-0.356-0.133-0.771-0.057-1.057 0.229l-4.586 4.586c-0.286 0.286-0.361 0.702-0.229 1.057 0.049 0.13 0.124 0.252 0.229 0.357 0 0 0 0 0 0l9.708 9.708-9.708 9.708c-0 0-0 0-0 0-0.104 0.105-0.18 0.227-0.229 0.357-0.133 0.355-0.057 0.771 0.229 1.057l4.586 4.586c0.286 0.286 0.702 0.361 1.057 0.229 0.13-0.049 0.252-0.124 0.357-0.229 0-0 0-0 0-0l9.708-9.708 9.708 9.708c0 0 0 0 0 0 0.105 0.105 0.227 0.18 0.357 0.229 0.356 0.133 0.771 0.057 1.057-0.229l4.586-4.586c0.286-0.286 0.362-0.702 0.229-1.057-0.049-0.13-0.124-0.252-0.229-0.357z"></path>
        </symbol>
        <symbol id="icon-Icon-1" viewBox="0 0 32 32">
<path fill="#7eb693" style="fill: var(--color1, #7eb693)" d="M32 16c0 8.837-7.163 16-16 16s-16-7.163-16-16c0-8.837 7.163-16 16-16s16 7.163 16 16z"></path>
<path fill="none" stroke="#fff" style="stroke: var(--color2, #fff)" stroke-linejoin="round" stroke-linecap="round" stroke-miterlimit="4" stroke-width="1.0435" d="M14.609 19.478l3.826-3.826-3.826-3.826"></path>
</symbol>
    </defs>
</svg>