<svg width="23" height="22" viewBox="0 0 23 22" fill="none" xmlns="http://www.w3.org/2000/svg">
<path fill-rule="evenodd" clip-rule="evenodd" d="M22.3305 11.3128C22.3305 5.37531 17.3311 0.561035 11.1653 0.561035C4.99944 0.561035 0 5.37531 0 11.3128C0 16.679 4.08229 21.1271 9.42068 21.9344V14.4216H6.58501V11.3128H9.42068V8.94402C9.42068 6.24985 11.088 4.76045 13.6381 4.76045C14.8598 4.76045 16.1378 4.97068 16.1378 4.97068V7.61685H14.7292C13.343 7.61685 12.9093 8.44531 12.9093 9.29681V11.3128H16.0057L15.5112 14.4216H12.9098V21.9354C18.2482 21.1285 22.3305 16.6805 22.3305 11.3128Z" fill="#274C5B"/>
<symbol id="icon-Fb" viewBox="0 0 33 32">
<path fill="#274c5b" style="fill: var(--color1, #274c5b)" d="M32.481 16.455c0-8.636-7.272-15.639-16.24-15.639s-16.24 7.003-16.24 15.639c0 7.805 5.938 14.275 13.703 15.45v-10.928h-4.125v-4.522h4.125v-3.445c0-3.919 2.425-6.085 6.134-6.085 1.777 0 3.636 0.306 3.636 0.306v3.849h-2.049c-2.016 0-2.647 1.205-2.647 2.444v2.932h4.504l-0.719 4.522h-3.784v10.929c7.765-1.174 13.703-7.643 13.703-15.451z"></path>
</symbol>
</svg>
