<svg width="23" height="22" viewBox="0 0 23 22" fill="none" xmlns="http://www.w3.org/2000/svg">
<path d="M16.4872 2.28838C17.72 2.29192 18.9012 2.76508 19.773 3.60451C20.6447 4.44395 21.136 5.58145 21.1397 6.76858V15.728C21.136 16.9152 20.6447 18.0527 19.773 18.8921C18.9012 19.7315 17.72 20.2047 16.4872 20.2082H7.18315C5.95036 20.2047 4.76911 19.7315 3.89739 18.8921C3.02567 18.0527 2.53431 16.9152 2.53063 15.728V6.76858C2.53431 5.58145 3.02567 4.44395 3.89739 3.60451C4.76911 2.76508 5.95036 2.29192 7.18315 2.28838H16.4872ZM16.4872 0.496582H7.18315C3.6008 0.496582 0.669922 3.31891 0.669922 6.76858V15.728C0.669922 19.1777 3.6008 22 7.18315 22H16.4872C20.0695 22 23.0004 19.1777 23.0004 15.728V6.76858C23.0004 3.31891 20.0695 0.496582 16.4872 0.496582Z" fill="#274C5B"/>
<path d="M17.8832 6.76923C17.6072 6.76923 17.3374 6.69041 17.1079 6.54273C16.8783 6.39506 16.6994 6.18516 16.5938 5.93958C16.4882 5.694 16.4605 5.42377 16.5144 5.16307C16.5682 4.90237 16.7012 4.66289 16.8964 4.47494C17.0915 4.28698 17.3402 4.15898 17.611 4.10712C17.8817 4.05527 18.1623 4.08188 18.4173 4.1836C18.6724 4.28532 18.8903 4.45758 19.0437 4.6786C19.197 4.89961 19.2789 5.15945 19.2789 5.42526C19.2793 5.60186 19.2435 5.7768 19.1735 5.94003C19.1035 6.10326 19.0007 6.25156 18.871 6.37644C18.7413 6.50131 18.5873 6.60029 18.4178 6.6677C18.2483 6.73511 18.0666 6.76961 17.8832 6.76923ZM11.8356 7.66489C12.5717 7.66489 13.2913 7.87509 13.9033 8.26891C14.5154 8.66273 14.9925 9.22249 15.2742 9.87739C15.5559 10.5323 15.6296 11.2529 15.486 11.9482C15.3423 12.6434 14.9879 13.282 14.4673 13.7833C13.9468 14.2845 13.2836 14.6259 12.5617 14.7642C11.8397 14.9024 11.0913 14.8315 10.4112 14.5602C9.73115 14.2889 9.14987 13.8296 8.7409 13.2402C8.33193 12.6508 8.11364 11.9578 8.11364 11.249C8.1147 10.2987 8.50716 9.38768 9.20493 8.71576C9.9027 8.04384 10.8488 7.6659 11.8356 7.66489ZM11.8356 5.87309C10.7314 5.87309 9.65207 6.18838 8.73402 6.77909C7.81596 7.3698 7.10042 8.20939 6.67788 9.1917C6.25535 10.174 6.14479 11.2549 6.3602 12.2977C6.57561 13.3406 7.1073 14.2984 7.88805 15.0503C8.66879 15.8021 9.66352 16.3141 10.7464 16.5215C11.8294 16.729 12.9518 16.6225 13.9719 16.2156C14.992 15.8087 15.8639 15.1197 16.4773 14.2356C17.0908 13.3516 17.4182 12.3122 17.4182 11.249C17.4182 9.82319 16.83 8.45582 15.7831 7.44765C14.7361 6.43948 13.3162 5.87309 11.8356 5.87309Z" fill="#274C5B"/>
<symbol id="icon-Insta" viewBox="0 0 33 32">
<path fill="#274c5b" style="fill: var(--color1, #274c5b)" d="M23.981 3.329c1.793 0.005 3.511 0.693 4.779 1.914s1.983 2.876 1.988 4.602v13.032c-0.005 1.727-0.72 3.381-1.988 4.602s-2.986 1.909-4.779 1.914h-13.533c-1.793-0.005-3.511-0.693-4.779-1.914s-1.983-2.875-1.988-4.602v-13.032c0.005-1.727 0.72-3.381 1.988-4.602s2.986-1.909 4.779-1.914h13.533zM23.981 0.722h-13.533c-5.211 0-9.474 4.105-9.474 9.123v13.032c0 5.018 4.263 9.123 9.474 9.123h13.533c5.211 0 9.474-4.105 9.474-9.123v-13.032c0-5.018-4.263-9.123-9.474-9.123z"></path>
<path fill="#274c5b" style="fill: var(--color1, #274c5b)" d="M26.012 9.846c-0.401 0-0.794-0.115-1.128-0.329s-0.594-0.52-0.748-0.877-0.194-0.75-0.116-1.129c0.078-0.379 0.272-0.728 0.556-1.001s0.646-0.46 1.039-0.535c0.394-0.075 0.802-0.037 1.173 0.111s0.688 0.399 0.911 0.72c0.223 0.321 0.342 0.699 0.342 1.086 0.001 0.257-0.052 0.511-0.153 0.749s-0.251 0.453-0.44 0.635c-0.189 0.182-0.413 0.326-0.659 0.424s-0.511 0.148-0.778 0.148zM17.215 11.149c1.071 0 2.117 0.306 3.008 0.879s1.584 1.387 1.994 2.34 0.517 2.001 0.308 3.012c-0.209 1.011-0.724 1.94-1.482 2.669s-1.722 1.226-2.772 1.427c-1.050 0.201-2.139 0.098-3.128-0.297s-1.835-1.063-2.43-1.92-0.912-1.865-0.912-2.896c0.002-1.382 0.572-2.707 1.587-3.685s2.391-1.527 3.826-1.529zM17.215 8.543c-1.606 0-3.176 0.459-4.511 1.318s-2.376 2.080-2.991 3.509c-0.615 1.429-0.775 3.001-0.462 4.518s1.087 2.91 2.222 4.004c1.136 1.094 2.582 1.838 4.158 2.14s3.208 0.147 4.692-0.445 2.752-1.594 3.644-2.88c0.892-1.286 1.369-2.798 1.369-4.344 0-2.074-0.856-4.063-2.378-5.529s-3.588-2.29-5.742-2.29z"></path>
</symbol>
</svg>
