<svg width="25" height="20" viewBox="0 0 25 20" fill="none" xmlns="http://www.w3.org/2000/svg">
<path d="M24.2556 2.94593C23.3581 3.33589 22.4086 3.59281 21.4369 3.70855C22.458 3.11061 23.226 2.16066 23.5967 1.03687C22.6312 1.60141 21.5767 1.99752 20.4784 2.20822C20.0159 1.7235 19.4596 1.33789 18.8434 1.07482C18.2272 0.811763 17.564 0.676749 16.894 0.677987C14.1815 0.677987 11.9863 2.84125 11.9863 5.50795C11.9844 5.87888 12.0269 6.24871 12.1129 6.60953C10.1678 6.51834 8.26315 6.02215 6.5208 5.15269C4.77845 4.28323 3.23677 3.05965 1.9944 1.56024C1.55854 2.29501 1.32804 3.13337 1.32698 3.98769C1.32698 5.66247 2.20076 7.14287 3.52015 8.01017C2.73845 7.99161 1.97276 7.78472 1.2881 7.40704V7.46686C1.2881 9.80957 2.98282 11.7585 5.22584 12.2021C4.80405 12.3146 4.36939 12.3715 3.93287 12.3716C3.62312 12.3721 3.31408 12.3421 3.01024 12.2819C3.6338 14.2009 5.44865 15.5966 7.59846 15.6364C5.85158 16.9827 3.70688 17.7103 1.50143 17.705C1.10996 17.7044 0.718851 17.6811 0.330078 17.6352C2.57369 19.0679 5.1817 19.8257 7.8437 19.8184C16.8836 19.8184 21.8222 12.4563 21.8222 6.0712C21.8222 5.86185 21.8167 5.6525 21.8067 5.44814C22.7653 4.76629 23.5946 3.91896 24.2556 2.94593Z" fill="#274C5B"/>
  <symbol id="icon-Twitter" viewBox="0 0 25 20">
    <path d="M24.2556 2.94593C23.3581 3.33589 22.4086 3.59281 21.4369 3.70855C22.458 3.11061 23.226 2.16066 23.5967 1.03687C22.6312 1.60141 21.5767 1.99752 20.4784 2.20822C20.0159 1.7235 19.4596 1.33789 18.8434 1.07482C18.2272 0.811763 17.564 0.676749 16.894 0.677987C14.1815 0.677987 11.9863 2.84125 11.9863 5.50795C11.9844 5.87888 12.0269 6.24871 12.1129 6.60953C10.1678 6.51834 8.26315 6.02215 6.5208 5.15269C4.77845 4.28323 3.23677 3.05965 1.9944 1.56024C1.55854 2.29501 1.32804 3.13337 1.32698 3.98769C1.32698 5.66247 2.20076 7.14287 3.52015 8.01017C2.73845 7.99161 1.97276 7.78472 1.2881 7.40704V7.46686C1.2881 9.80957 2.98282 11.7585 5.22584 12.2021C4.80405 12.3146 4.36939 12.3715 3.93287 12.3716C3.62312 12.3721 3.31408 12.3421 3.01024 12.2819C3.6338 14.2009 5.44865 15.5966 7.59846 15.6364C5.85158 16.9827 3.70688 17.7103 1.50143 17.705C1.10996 17.7044 0.718851 17.6811 0.330078 17.6352C2.57369 19.0679 5.1817 19.8257 7.8437 19.8184C16.8836 19.8184 21.8222 12.4563 21.8222 6.0712C21.8222 5.86185 21.8167 5.6525 21.8067 5.44814C22.7653 4.76629 23.5946 3.91896 24.2556 2.94593Z" fill="#274C5B"/>
  </symbol>

</svg>



