<svg width="25" height="25" viewBox="0 0 25 25" fill="none" xmlns="http://www.w3.org/2000/svg">
<path d="M6.39285 23.1132C0.653339 19.7995 -1.31316 12.4604 2.00055 6.72092C5.31426 0.981405 12.6533 -0.985096 18.3929 2.32861C24.1324 5.64232 26.0989 12.9814 22.7852 18.7209C19.4714 24.4604 12.1324 26.4269 6.39285 23.1132ZM12.6069 12.3501C12.4021 12.2319 12.1403 12.302 12.022 12.5068C11.9038 12.7116 11.974 12.9735 12.1788 13.0917C12.3836 13.21 12.6454 13.1398 12.7637 12.935C12.8819 12.7302 12.8117 12.4683 12.6069 12.3501Z" fill="#FFF4CD"/>
<symbol id="icon-Ellipse-86" viewBox="0 0 32 32">
<path fill="#fff4cd" style="fill: var(--color3, #fff4cd)" d="M8.183 29.915c-7.347-4.242-9.864-13.636-5.622-20.982s13.636-9.864 20.982-5.622c7.347 4.242 9.864 13.636 5.622 20.982s-13.636 9.864-20.982 5.622zM16.137 16.138c-0.262-0.151-0.597-0.061-0.749 0.201s-0.061 0.597 0.201 0.749c0.262 0.151 0.597 0.062 0.749-0.201s0.061-0.597-0.201-0.749z"></path>
</symbol>
</svg>
