<svg version="1.1" xmlns="http://www.w3.org/2000/svg" width="32" height="32" viewBox="0 0 32 32">
<path fill="#335b6b" d="M32 16c0 8.837-7.163 16-16 16s-16-7.163-16-16c0-8.837 7.163-16 16-16s16 7.163 16 16z"></path>
<path fill="none" stroke="#fff" stroke-linejoin="round" stroke-linecap="round" stroke-miterlimit="4" stroke-width="1.6842" d="M15.959 10.322l5.717 5.161-5.717 5.161M20.883 15.484h-11.593"></path>
<symbol id="icon-Aerrow" viewBox="0 0 32 32">
<path fill="#335b6b" style="fill: var(--color1, #335b6b)" d="M32 16c0 8.837-7.163 16-16 16s-16-7.163-16-16c0-8.837 7.163-16 16-16s16 7.163 16 16z"></path>
<path fill="none" stroke="#fff" style="stroke: var(--color2, #fff)" stroke-linejoin="round" stroke-linecap="round" stroke-miterlimit="4" stroke-width="1.6842" d="M15.959 10.322l5.717 5.161-5.717 5.161M20.883 15.484h-11.593"></path>
</symbol>
</svg>
