<!-- Generated by IcoMoon.io -->
<svg version="1.1" xmlns="http://www.w3.org/2000/svg" width="32" height="32" viewBox="0 0 32 32">
<path fill="#fff4cd" d="M8.183 29.915c-7.347-4.242-9.864-13.636-5.622-20.982s13.636-9.864 20.982-5.622c7.347 4.242 9.864 13.636 5.622 20.982s-13.636 9.864-20.982 5.622zM16.137 16.138c-0.262-0.151-0.597-0.061-0.749 0.201s-0.061 0.597 0.201 0.749c0.262 0.151 0.597 0.062 0.749-0.201s0.061-0.597-0.201-0.749z"></path>
<symbol id="icon-Ellipse-86" viewBox="0 0 32 32">
<path fill="#fff4cd" style="fill: var(--color3, #fff4cd)" d="M8.183 29.915c-7.347-4.242-9.864-13.636-5.622-20.982s13.636-9.864 20.982-5.622c7.347 4.242 9.864 13.636 5.622 20.982s-13.636 9.864-20.982 5.622zM16.137 16.138c-0.262-0.151-0.597-0.061-0.749 0.201s-0.061 0.597 0.201 0.749c0.262 0.151 0.597 0.062 0.749-0.201s0.061-0.597-0.201-0.749z"></path>
</symbol>
</svg>
